Coordinates
version=1
nRows=29
nColumns=22
inDegrees=yes

Units are S.I. units (second, meters, Newtons, ...)
If the header above contains a line with 'inDegrees', this indicates whether rotational values are in degrees (yes) or radians (no).

endheader
time	pelvis_tilt	pelvis_list	pelvis_rotation	pelvis_tx	pelvis_ty	pelvis_tz	hip_flexion_r	hip_adduction_r	hip_rotation_r	knee_angle_r	ankle_angle_r	subtalar_angle_r	hip_flexion_l	hip_adduction_l	hip_rotation_l	knee_angle_l	ankle_angle_l	subtalar_angle_l	lumbar_extension	lumbar_bending	lumbar_rotation
      5.44000000	     -1.58694500	      0.71967081	    -86.75781858	      1.00983551	      0.93764885	      0.35969077	     29.70309417	     -4.26441591	    -35.84062629	    -18.30263353	      7.62104781	     -2.51528157	    -10.50853100	     -4.26031899	      0.81456757	    -14.59502237	     18.88172284	     10.24588053	     -3.53820775	      5.22137668	    -20.35218206
      5.45000000	     -1.64687976	      0.67638490	    -86.82928090	      1.00799267	      0.93707344	      0.36960035	     29.45488221	     -4.37076547	    -36.41581671	    -18.97631882	      7.29961788	     -2.81557377	    -10.85967578	     -4.49925249	      0.96517372	    -15.17056762	     18.67230017	     11.09290999	     -3.43268700	      5.49063066	    -20.48949026
      5.46000000	     -1.74628891	      0.66564475	    -86.93679779	      1.00590154	      0.93657684	      0.37968545	     29.21152149	     -4.40630598	    -36.93631121	    -19.69116193	      6.81536600	     -3.12011736	    -11.14151144	     -4.78735665	      1.07257934	    -15.81955247	     18.38501295	     12.02908711	     -3.27669155	      5.79665595	    -20.61050205
      5.47000000	     -1.88662501	      0.69667869	    -87.08866116	      1.00354298	      0.93619386	      0.38989702	     28.97897447	     -4.35890731	    -37.39723284	    -20.38423548	      6.17418430	     -3.41552708	    -11.33898733	     -5.11620137	      1.19919291	    -16.54945642	     17.98710766	     13.03508955	     -3.06809383	      6.13715677	    -20.65857379
      5.48000000	     -2.10109553	      0.77278341	    -87.27421482	      1.00092225	      0.93591758	      0.40022727	     28.77568810	     -4.21658782	    -37.85318231	    -21.06269896	      5.47155958	     -3.66964923	    -11.42310540	     -5.52491577	      1.30322518	    -17.39726962	     17.51228377	     14.00930329	     -2.79872162	      6.55040851	    -20.68166488
      5.49000000	     -2.34246235	      0.89808663	    -87.56261428	      0.99796691	      0.93578247	      0.41060841	     28.62502427	     -3.97133310	    -38.11729000	    -21.69700363	      4.71849034	     -3.93342888	    -11.40274235	     -5.94495178	      1.36313214	    -18.35114328	     16.90467283	     15.15440759	     -2.48447346	      6.98173263	    -20.59888871
      5.50000000	     -2.57800100	      1.05346523	    -87.94634491	      0.99475504	      0.93582327	      0.42102698	     28.52067306	     -3.67043125	    -38.19043819	    -22.32051379	      4.02427174	     -4.16785018	    -11.29933092	     -6.33148188	      1.43064324	    -19.40437811	     16.13493896	     16.34877612	     -2.14882047	      7.40482179	    -20.41746042
      5.51000000	     -2.84309200	      1.26649607	    -88.42858439	      0.99125731	      0.93596613	      0.43143406	     28.49852940	     -3.27077760	    -38.07296845	    -22.94299109	      3.43227046	     -4.38211092	    -11.03626252	     -6.73163652	      1.42150296	    -20.63102559	     15.24746596	     17.50725722	     -1.76404459	      7.85935063	    -20.16011679
      5.52000000	     -3.08582580	      1.50831685	    -89.01918766	      0.98751800	      0.93624300	      0.44179486	     28.53080873	     -2.81474143	    -37.73588429	    -23.57186385	      2.97704321	     -4.61809554	    -10.65121367	     -7.08349641	      1.38108610	    -22.01611870	     14.21382812	     18.63748725	     -1.37172875	      8.29307585	    -19.81046998
      5.53000000	     -3.28960261	      1.76198306	    -89.70644042	      0.98358072	      0.93665300	      0.45208455	     28.58869190	     -2.32011782	    -37.20613101	    -24.19707646	      2.65743459	     -4.89656737	    -10.15251028	     -7.37286410	      1.33049603	    -23.56417822	     13.03717096	     19.71861416	     -0.99305914	      8.69212056	    -19.38431685
      5.54000000	     -3.43562156	      2.01417370	    -90.47901359	      0.97947760	      0.93717588	      0.46227912	     28.64992329	     -1.81342303	    -36.52774716	    -24.81421606	      2.48190779	     -5.21696054	     -9.54116226	     -7.58537554	      1.27772846	    -25.28437010	     11.73227197	     20.70593285	     -0.64268671	      9.03509949	    -18.89296942
      5.55000000	     -3.51367308	      2.24245168	    -91.31593260	      0.97526463	      0.93780787	      0.47236544	     28.67749355	     -1.31666640	    -35.73821178	    -25.40701824	      2.43508741	     -5.56102700	     -8.83435815	     -7.71410782	      1.24399392	    -27.17124744	     10.32340232	     21.55532625	     -0.34287604	      9.31216068	    -18.35434027
      5.56000000	     -3.52519197	      2.43517914	    -92.19176651	      0.97096470	      0.93853871	      0.48232072	     28.64509456	     -0.84023773	    -34.88040977	    -25.95251398	      2.48599093	     -5.92696511	     -8.03610792	     -7.76696328	      1.25050106	    -29.22048797	      8.84382203	     22.29325084	     -0.10247098	      9.51807720	    -17.79672784
      5.57000000	     -3.47126244	      2.59004629	    -93.09449974	      0.96659104	      0.93932709	      0.49211715	     28.55078052	     -0.40045882	    -33.99467123	    -26.45604044	      2.64544986	     -6.27139075	     -7.14280346	     -7.74953361	      1.28945804	    -31.43051090	      7.34008858	     22.84095805	      0.07905245	      9.64767482	    -17.23133945
      5.58000000	     -3.36824782	      2.71052988	    -94.00107251	      0.96216053	      0.94014930	      0.50173207	     28.39187878	      0.00426269	    -33.11484155	    -26.90721492	      2.88851110	     -6.58949019	     -6.15052085	     -7.68383247	      1.36979173	    -33.78565797	      5.84571227	     23.21997738	      0.21181584	      9.71279700	    -16.68034273
      5.59000000	     -3.25663718	      2.78104204	    -94.92286837	      0.95762653	      0.94100723	      0.51115618	     28.14323010	      0.41892190	    -32.24274286	    -27.29124153	      3.19030524	     -6.81799547	     -5.09592617	     -7.61869709	      1.44252247	    -36.25539840	      4.40901752	     23.37852635	      0.27589848	      9.75141677	    -16.13289905
      5.60000000	     -3.07933193	      2.88337466	    -95.78897489	      0.95311897	      0.94175850	      0.52032839	     27.92211262	      0.72879743	    -31.47429433	    -27.67106765	      3.60757909	     -7.06540789	     -3.86688078	     -7.48886496	      1.63031482	    -38.82614096	      3.03030842	     23.38131579	      0.38269931	      9.70340173	    -15.65451177
      5.61000000	     -2.93243641	      2.95321343	    -96.65868111	      0.94850240	      0.94250227	      0.52928684	     27.63002292	      1.07556001	    -30.74084408	    -27.99057327	      4.05875585	     -7.21443805	     -2.59374582	     -7.40395686	      1.80726659	    -41.42388405	      1.76931474	     23.13291050	      0.44471768	      9.66930202	    -15.19697401
      5.62000000	     -2.80934783	      3.01749039	    -97.51356936	      0.94381234	      0.94319806	      0.53801739	     27.30205657	      1.43935001	    -30.06253853	    -28.26418887	      4.54918633	     -7.28393715	     -1.26010177	     -7.35586032	      2.00537635	    -44.00501954	      0.64916223	     22.63053443	      0.49546929	      9.64357540	    -14.77392731
      5.63000000	     -2.73063174	      3.07497600	    -98.36441054	      0.93902161	      0.94386391	      0.54653742	     26.92687412	      1.85036888	    -29.42737958	    -28.47691149	      5.05871971	     -7.28825609	      0.10243936	     -7.37332100	      2.20329976	    -46.51593530	     -0.27664828	     21.92626880	      0.53193478	      9.64752255	    -14.37312412
      5.64000000	     -2.70562728	      3.12313378	    -99.21041375	      0.93412450	      0.94451398	      0.55487299	     26.49500146	      2.32111124	    -28.82373894	    -28.62170122	      5.57070600	     -7.25156556	      1.46727488	     -7.47017123	      2.40158661	    -48.91089512	     -0.95549757	     21.08109129	      0.55097360	      9.68893287	    -13.99388905
      5.65000000	     -2.74081450	      3.16545485	   -100.06699367	      0.92908474	      0.94516819	      0.56302584	     26.00474480	      2.87125892	    -28.22634131	    -28.68784521	      6.05520712	     -7.19172265	      2.81642044	     -7.66191512	      2.58506994	    -51.15224516	     -1.36352231	     20.14246677	      0.55208338	      9.77277100	    -13.62290011
      5.66000000	     -2.82742488	      3.19535925	   -100.93059923	      0.92391732	      0.94585105	      0.57103017	     25.44406965	      3.48877880	    -27.63252990	    -28.67002129	      6.52878350	     -7.12353350	      4.12425970	     -7.93397885	      2.77492207	    -53.20386997	     -1.51299554	     19.12444423	      0.53185523	      9.88928335	    -13.24639704
      5.67000000	     -2.95783855	      3.21195545	   -101.80942453	      0.91862340	      0.94656328	      0.57888418	     24.82013112	      4.16510607	    -27.02590055	    -28.58371770	      6.97507613	     -7.05601950	      5.38046686	     -8.27707150	      2.96740184	    -55.04634971	     -1.42187838	     18.02813628	      0.48886141	     10.02826746	    -12.85880378
      5.68000000	     -3.11644920	      3.21648429	   -102.70077365	      0.91321533	      0.94731563	      0.58658662	     24.13171227	      4.88886814	    -26.37677974	    -28.41826648	      7.38879904	     -6.99945654	      6.58137642	     -8.66847218	      3.18002904	    -56.66276983	     -1.15435671	     16.87003224	      0.42632231	     10.17475527	    -12.48649827
      5.69000000	     -3.28341162	      3.20824937	   -103.61296856	      0.90771470	      0.94811786	      0.59413706	     23.38424328	      5.63769116	    -25.67138784	    -28.17937274	      7.76854553	     -6.95988172	      7.71551113	     -9.07105984	      3.42588361	    -58.03202126	     -0.76724190	     15.63527205	      0.34555110	     10.30886735	    -12.09757282
      5.70000000	     -3.45200698	      3.19451440	   -104.54635083	      0.90213681	      0.94895379	      0.60151707	     22.59000271	      6.40108114	    -24.90909602	    -27.87491659	      8.11398728	     -6.94548130	      8.79276116	     -9.47436182	      3.70809199	    -59.15453571	     -0.32384042	     14.35663561	      0.25271822	     10.42722829	    -11.70338239
      5.71000000	     -3.60615350	      3.17982258	   -105.51010946	      0.89650271	      0.94981628	      0.60870775	     21.76239726	      7.16141681	    -24.07746985	    -27.51412540	      8.42076109	     -6.96025775	      9.81318954	     -9.85224323	      4.02508038	    -60.02319763	      0.15866274	     13.04331549	      0.15155903	     10.51690594	    -11.29186303
      5.72000000	     -3.74614022	      3.17110159	   -106.50407835	      0.89083104	      0.95069477	      0.61569054	     20.90989226	      7.91451753	    -23.18462132	    -27.10113746	      8.69309396	     -7.00504050	     10.78159112	    -10.20002048	      4.38368618	    -60.63905260	      0.67317756	     11.72504906	      0.04597494	     10.58366648	    -10.86554178
